# Blender 4.5.3 LTS
# www.blender.org
o Plane
v -0.985652 0.000000 -0.982394
v -0.996460 0.000000 -0.800706
v -1.014908 0.000000 -0.437001
v -1.007929 0.000000 0.489055
v -1.016815 0.000000 0.680471
v -1.035042 0.000000 0.869310
v -0.872533 0.000000 1.074208
v -0.685979 0.000000 1.087192
v -0.284070 0.000000 1.079254
v -0.082709 0.000000 1.061794
v 0.976009 0.000000 0.875865
v 0.987532 0.000000 0.296361
v 0.968822 0.000000 -0.402482
v 0.415410 0.000000 -0.969131
v -0.111988 0.000000 -1.025121
v -0.809101 0.000000 -0.994964
v -0.832567 0.000000 0.696858
v -0.821030 0.000000 0.497930
v -0.828292 0.000000 0.301486
v -0.838911 0.000000 0.111016
v -0.838986 0.000000 -0.073837
v -0.838427 0.000000 -0.258144
v -0.835184 0.000000 -0.443454
v -0.828349 0.000000 -0.628242
v -0.818995 0.000000 -0.812158
v -0.669559 0.000000 0.905482
v -0.651823 0.000000 0.709310
v -0.642704 0.000000 0.505180
v -0.648323 0.000000 0.302275
v -0.656244 0.000000 0.107915
v -0.656089 0.000000 -0.078457
v -0.656976 0.000000 -0.263826
v -0.656595 0.000000 -0.450728
v -0.651216 0.000000 -0.638282
v -0.642588 0.000000 -0.824564
v -0.469005 0.000000 0.712284
v -0.469378 0.000000 0.505141
v -0.474750 0.000000 0.300299
v -0.476625 0.000000 0.106449
v -0.476902 0.000000 -0.081285
v -0.479026 0.000000 -0.268224
v -0.479949 0.000000 -0.457072
v -0.475659 0.000000 -0.646775
v -0.467506 0.000000 -0.834825
v -0.281894 0.000000 0.899054
v -0.284028 0.000000 0.702873
v -0.293489 0.000000 0.498319
v -0.300755 0.000000 0.296901
v -0.299746 0.000000 0.106983
v -0.300582 0.000000 -0.081467
v -0.303848 0.000000 -0.270164
v -0.304362 0.000000 -0.460790
v -0.300495 0.000000 -0.651739
v -0.293409 0.000000 -0.840650
v -0.087282 0.000000 0.880248
v -0.096728 0.000000 0.687758
v -0.108903 0.000000 0.491971
v -0.118971 0.000000 0.297503
v -0.123453 0.000000 0.108105
v -0.125752 0.000000 -0.079527
v -0.129633 0.000000 -0.268521
v -0.130809 0.000000 -0.457162
v -0.127638 0.000000 -0.646749
v -0.120316 0.000000 -0.836979
v 0.105102 0.000000 0.868578
v 0.093787 0.000000 0.678892
v 0.080000 0.000000 0.487132
v 0.067726 0.000000 0.296169
v 0.059546 0.000000 0.109461
v 0.052997 0.000000 -0.074172
v 0.046200 0.000000 -0.256288
v 0.041601 0.000000 -0.439557
v 0.042620 0.000000 -0.627183
v 0.050316 0.000000 -0.819003
v 0.278804 0.000000 0.671139
v 0.266544 0.000000 0.479805
v 0.254251 0.000000 0.291058
v 0.244617 0.000000 0.110586
v 0.234603 0.000000 -0.063512
v 0.224204 0.000000 -0.237770
v 0.216257 0.000000 -0.415489
v 0.215125 0.000000 -0.600682
v 0.223023 0.000000 -0.793772
v 0.463050 0.000000 0.853530
v 0.456659 0.000000 0.665928
v 0.447585 0.000000 0.476025
v 0.438372 0.000000 0.289274
v 0.430363 0.000000 0.112781
v 0.417864 0.000000 -0.054868
v 0.404819 0.000000 -0.222209
v 0.395028 0.000000 -0.393326
v 0.392825 0.000000 -0.574738
v 0.400949 0.000000 -0.768257
v 0.631626 0.000000 0.856216
v 0.629301 0.000000 0.667853
v 0.625320 0.000000 0.478274
v 0.621657 0.000000 0.291803
v 0.616094 0.000000 0.113811
v 0.604334 0.000000 -0.052565
v 0.590426 0.000000 -0.215926
v 0.579619 0.000000 -0.383080
v 0.576882 0.000000 -0.560570
v 0.584691 0.000000 -0.752783
v 0.800671 0.000000 0.864702
v 0.802682 0.000000 0.674524
v 0.803908 0.000000 0.484103
v 0.804630 0.000000 0.295264
v 0.802765 0.000000 0.111359
v 0.794266 0.000000 -0.057782
v 0.781784 0.000000 -0.220566
v 0.772135 0.000000 -0.386946
v 0.769257 0.000000 -0.563542
v 0.775146 0.000000 -0.753984
v 0.786394 0.000000 -0.943767
v 0.736837 -0.000000 -0.914803
v 0.945805 -0.000000 -0.838174
v 0.962487 0.000000 -0.964722
v 0.807110 0.000000 -0.955875
v 0.926528 0.000000 -0.765485
v 0.912049 -0.000000 -0.710887
v 0.956946 0.000000 -0.579274
v 0.966790 0.000000 -0.550418
v 0.970828 0.000000 -0.357881
v 0.775372 0.000000 -0.331124
v 0.750971 0.000000 -0.327784
v 0.777270 0.000000 -0.298407
v 0.843220 0.000000 -0.224737
v 0.963265 0.000000 -0.090641
v 0.844064 0.000000 -0.060525
v 0.804242 0.000000 -0.050464
v 0.942738 0.000000 -0.062790
v 0.907194 -0.000000 0.051046
v 0.939777 -0.000000 0.100591
v 0.988068 0.000000 0.251827
v 0.941819 0.000000 0.106986
v 0.935255 0.000000 0.411665
v 0.986777 0.000000 0.346722
v 0.938691 0.000000 0.488989
v 0.940005 0.000000 0.518560
v 0.918392 0.000000 0.606081
v 0.981999 0.000000 0.621630
v 0.979969 0.000000 0.684576
v 0.980750 0.000000 0.683981
v 0.904056 -0.000000 0.742380
v 0.977169 0.000000 0.828936
v 0.879951 0.000000 1.055321
v 0.973202 0.000000 1.003966
v 0.628313 0.000000 -0.753058
v 0.603956 -0.000000 -0.716757
v 0.609549 -0.000000 -0.888643
v 0.595256 0.000000 -0.903439
v 0.541167 0.000000 -0.959432
v 0.248000 0.000000 -0.974191
v 0.274421 0.000000 -0.986458
v 0.605132 0.000000 -0.752912
v 0.354133 0.000000 1.039044
v 0.405071 0.000000 0.538735
v 0.391928 0.000000 0.667825
v 0.372711 0.000000 0.856570
v 0.631634 0.000000 0.923319
v 0.729326 -0.000000 0.864752
v 0.465841 0.000000 1.022715
v 0.443195 0.000000 1.036291
v 0.349415 0.000000 0.669070
v 0.286462 0.000000 0.816491
v 0.798727 0.000000 1.009169
v 0.818826 0.000000 1.050993
v 0.035576 -0.000000 -0.966283
v 0.036156 0.000000 -1.013855
v 0.090534 -0.000000 -0.991472
v 0.059524 0.000000 -0.977259
v 0.233101 0.000000 -0.935847
v 0.232732 0.000000 -0.935990
v 0.229050 0.000000 0.842179
v 0.229983 0.000000 0.738900
v 0.286204 0.000000 0.816137
v 0.198845 -0.000000 0.894376
v 0.217014 0.000000 0.862979
v 0.123215 -0.000000 0.976369
v 0.215497 0.000000 1.045065
v 0.254668 -0.000000 0.985768
v -0.024887 0.000000 1.058457
v 0.109270 0.000000 0.984098
v 0.266336 0.000000 1.042366
v -0.200844 -0.000000 -0.982588
v -0.212135 0.000000 -1.025414
v -0.261301 0.000000 -0.982494
v -0.439955 0.000000 -1.003510
v -0.288732 0.000000 -0.985721
v -0.462268 0.000000 -0.996984
v -0.582223 -0.000000 -0.961902
v -0.474295 -0.000000 -0.876558
v -0.623991 0.000000 -0.956826
v -0.478374 -0.000000 0.858649
v -0.475546 0.000000 0.867471
v -0.462327 0.000000 0.908704
v -0.420644 -0.000000 1.038724
v -0.221364 0.000000 1.073817
v -0.188638 0.000000 0.966198
v -0.167540 0.000000 1.069150
v -0.376732 0.000000 1.084000
v -0.721247 0.000000 -0.983264
v -0.769140 0.000000 -0.998006
v -0.636555 0.000000 -0.960573
v -0.676749 0.000000 -0.972563
v -0.640627 0.000000 -0.876304
v -0.957172 -0.000000 -0.752440
v -0.759993 -0.000000 -0.749501
v -0.821627 0.000000 -0.760412
v -0.822135 0.000000 -0.750427
v -0.996989 0.000000 -0.791454
v -0.584480 -0.000000 -0.159370
v -0.656523 0.000000 -0.169230
v -0.838621 0.000000 -0.194153
v -0.981372 -0.000000 -0.213690
v -0.656443 0.000000 -0.152510
v -0.838800 0.000000 -0.135126
v -0.870662 0.000000 -0.132089
v -0.508504 0.000000 0.908853
v -0.616059 0.000000 1.088070
v -0.733907 -0.000000 0.968132
v -0.771046 -0.000000 0.900361
v -0.763860 -0.000000 0.989517
v -0.716808 -0.000000 1.009572
v -0.669263 -0.000000 1.012626
v -0.679183 0.000000 1.011989
v -0.678656 0.000000 1.006161
v -0.927146 -0.000000 -0.699250
v -0.917546 -0.000000 -0.676030
v -0.935742 -0.000000 -0.644780
v -0.942365 -0.000000 -0.474326
v -0.937273 0.000000 -0.071751
v -0.993679 0.000000 -0.020657
v -0.928478 0.000000 0.039396
v -0.980095 0.000000 0.086725
v -0.993821 -0.000000 0.176805
v -0.925124 0.000000 0.300891
v -0.920799 -0.000000 0.308702
v -0.931357 0.000000 0.492691
v -0.934070 -0.000000 0.539964
v -0.946182 0.000000 0.491987
v -0.973517 -0.000000 0.383714
v -0.908346 -0.000000 0.682317
v -0.966820 0.000000 0.684917
v -0.917901 0.000000 0.689268
v -1.025198 0.000000 0.767327
v -1.017461 0.000000 0.687169
v -0.857920 0.000000 0.928762
v -0.855487 0.000000 0.938712
v -0.786529 0.000000 0.896004
v -0.871796 -0.000000 0.872008
v -0.867657 0.000000 0.888938
v -0.852621 0.000000 0.877404
v -0.810913 0.000000 0.969463
v -0.936606 0.000000 -0.622532
v -1.008222 0.000000 -0.588305
v -1.019496 0.000000 -0.302163
v -0.998780 0.000000 -0.254090
v -0.984200 0.000000 0.113668
v -1.013341 0.000000 0.353223
v -0.946483 -0.000000 0.886150
v -0.983470 0.000000 1.061579
v -1.046737 0.000000 1.012291
vn -0.0000 1.0000 -0.0000
vt 0.909091 0.909091
vt 0.979622 0.909091
vt 0.987017 0.941985
vt 0.992123 1.000000
vt 0.918588 1.000000
vt 0.909091 0.995034
vt 0.000000 0.909091
vt 0.090909 0.909091
vt 0.090909 1.000000
vt 0.000000 1.000000
vt 0.181818 0.909091
vt 0.181818 0.976400
vt 0.160592 0.983849
vt 0.181645 0.934708
vt 0.137103 0.990847
vt 0.111709 1.000000
vt 0.272727 0.909091
vt 0.272727 0.988997
vt 0.210317 0.975383
vt 0.268473 0.929899
vt 0.188495 0.974156
vt 0.363636 0.909091
vt 0.363636 0.980385
vt 0.284281 0.991822
vt 0.454545 0.909091
vt 0.454545 1.000000
vt 0.402657 1.000000
vt 0.409360 0.979155
vt 0.377960 0.978915
vt 0.545455 0.909091
vt 0.545455 0.983665
vt 0.533235 0.977555
vt 0.532156 1.000000
vt 0.636364 0.909091
vt 0.636364 0.974605
vt 0.561055 0.992094
vt 0.727273 0.909091
vt 0.727273 1.000000
vt 0.655634 1.000000
vt 0.642748 0.992935
vt 0.636555 0.974561
vt 0.818182 0.909091
vt 0.818182 0.976826
vt 0.789588 1.000000
vt 0.827939 0.909091
vt 0.825551 0.970160
vt 0.000000 0.090909
vt 0.084088 0.090909
vt 0.081130 0.098577
vt 0.090909 0.097071
vt 0.090909 0.181818
vt 0.048805 0.181818
vt 0.000000 0.140005
vt 0.000000 0.181818
vt 0.024668 0.181818
vt 0.053317 0.185427
vt 0.090909 0.272727
vt 0.037245 0.272727
vt 0.037108 0.250636
vt 0.030034 0.272727
vt 0.000000 0.272727
vt 0.018783 0.323915
vt 0.000000 0.338160
vt 0.000000 0.727273
vt 0.090909 0.727273
vt 0.090909 0.818182
vt 0.035782 0.818182
vt 0.035967 0.744548
vt 0.000000 0.802922
vt 0.090909 0.000000
vt 0.181818 0.000000
vt 0.181818 0.037624
vt 0.163412 0.037430
vt 0.139617 0.045619
vt 0.115774 0.053752
vt 0.092580 0.067191
vt 0.090909 0.071987
vt 0.181818 0.181818
vt 0.181818 0.272727
vt 0.181818 0.363636
vt 0.090909 0.363636
vt 0.181818 0.454545
vt 0.090909 0.454545
vt 0.181818 0.545455
vt 0.090909 0.545455
vt 0.181818 0.581772
vt 0.090909 0.575685
vt 0.090909 0.636364
vt 0.181818 0.636364
vt 0.181818 0.727273
vt 0.181818 0.818182
vt 0.090909 0.883513
vt 0.123009 0.876124
vt 0.090909 0.878578
vt 0.213875 0.000000
vt 0.257980 0.090909
vt 0.181818 0.090909
vt 0.181818 0.040540
vt 0.186446 0.037385
vt 0.271185 0.114323
vt 0.272727 0.110285
vt 0.272727 0.181818
vt 0.272727 0.272727
vt 0.272727 0.363636
vt 0.272727 0.454545
vt 0.272727 0.545455
vt 0.272727 0.636364
vt 0.181818 0.589972
vt 0.218450 0.584444
vt 0.272727 0.727273
vt 0.272727 0.818182
vt 0.363636 0.181818
vt 0.363636 0.272727
vt 0.363636 0.363636
vt 0.363636 0.454545
vt 0.363636 0.545455
vt 0.363636 0.636364
vt 0.363636 0.727273
vt 0.363636 0.818182
vt 0.363636 0.000000
vt 0.391947 0.000000
vt 0.406961 0.052658
vt 0.416247 0.000000
vt 0.454545 0.000000
vt 0.454545 0.090909
vt 0.363636 0.090909
vt 0.454545 0.181818
vt 0.454545 0.272727
vt 0.454545 0.363636
vt 0.454545 0.454545
vt 0.454545 0.545455
vt 0.454545 0.636364
vt 0.454545 0.727273
vt 0.454545 0.818182
vt 0.481588 0.000000
vt 0.545455 0.033206
vt 0.545455 0.090909
vt 0.545455 0.181818
vt 0.545455 0.272727
vt 0.545455 0.363636
vt 0.545455 0.454545
vt 0.545455 0.545455
vt 0.545455 0.636364
vt 0.545455 0.727273
vt 0.545455 0.818182
vt 0.600955 0.090909
vt 0.607467 0.100607
vt 0.610646 0.150230
vt 0.636364 0.111803
vt 0.636364 0.181818
vt 0.636364 0.272727
vt 0.636364 0.363636
vt 0.636364 0.454545
vt 0.636364 0.545455
vt 0.636364 0.636364
vt 0.636364 0.727273
vt 0.636364 0.818182
vt 0.672456 0.181818
vt 0.704298 0.243228
vt 0.694186 0.181818
vt 0.727273 0.181818
vt 0.727273 0.272727
vt 0.727273 0.363636
vt 0.727273 0.454545
vt 0.727273 0.545455
vt 0.727273 0.636364
vt 0.727273 0.727273
vt 0.727273 0.818182
vt 0.727273 0.090909
vt 0.818182 0.090909
vt 0.818182 0.181818
vt 0.818182 0.272727
vt 0.818182 0.363636
vt 0.818182 0.454545
vt 0.818182 0.545455
vt 0.818182 0.636364
vt 0.818182 0.727273
vt 0.818182 0.818182
vt 0.909091 0.090909
vt 0.909091 0.181818
vt 0.909091 0.272727
vt 0.909091 0.363636
vt 0.909091 0.454545
vt 0.909091 0.545455
vt 0.909091 0.636364
vt 0.909091 0.678896
vt 0.897462 0.695240
vt 0.909091 0.696772
vt 0.909091 0.727273
vt 0.909091 0.818182
vt 0.839003 0.909091
vt 0.828049 0.891962
vt 1.000000 0.090909
vt 1.000000 0.113217
vt 0.961433 0.152252
vt 0.999608 0.181818
vt 1.000000 0.182117
vt 1.000000 0.211340
vt 0.967585 0.217171
vt 0.977787 0.258815
vt 0.976894 0.272727
vt 0.974706 0.309126
vt 1.000000 0.340073
vt 1.000000 0.363636
vt 1.000000 0.384845
vt 0.976668 0.454545
vt 0.975779 0.457955
vt 0.960804 0.484698
vt 0.979499 0.543783
vt 0.913658 0.541259
vt 0.932722 0.545455
vt 0.989965 0.558392
vt 0.937788 0.636364
vt 1.000000 0.727273
vt 1.000000 0.803005
vt 0.995648 0.818182
vt 0.973465 0.883344
vt 0.011130 0.636364
vt 0.020023 0.616159
vt 0.090909 0.604800
vt 0.075175 0.574545
vt 0.042578 0.545455
vt 0.909091 0.019852
vt 0.919891 0.000000
vt 0.951873 0.000000
vt 1.000000 0.028288
vt 0.000000 0.178594
vt 0.886041 0.981927
vt 0.636488 0.111628
vt 0.680246 0.090909
vt 0.552522 0.036700
vt 0.597293 0.000000
vt 0.622675 0.000000
vt 0.617734 0.028592
vt 0.591451 0.075684
vt 1.000000 0.703238
vt 0.000000 0.660463
vt 0.014900 0.520858
vt 0.046973 0.490624
vt 0.021702 0.467786
vt 0.019718 0.454545
vt 0.013475 0.423912
vt 0.043874 0.363636
vt 0.727273 0.006426
vt 0.818182 0.057623
vt 0.124189 0.090909
vt 0.279701 0.090909
vt 0.131963 0.089377
vt 0.153223 0.057330
vt 0.045829 0.359957
vt 0.870736 0.089116
vt 0.668221 0.000000
vt 0.715213 0.000000
vt 0.000000 0.904466
vt 0.021570 0.883694
vt 0.038469 0.856220
vt 0.044030 0.844364
vt 0.035601 0.829264
vt 0.000000 0.020526
vt 0.044780 0.087757
vt 0.034128 0.000000
vt 0.301747 0.024031
vt 0.322267 0.000000
s 0
f 113/1/1 119/2/1 116/3/1 117/4/1 118/5/1 114/6/1
f 2/7/1 25/8/1 16/9/1 1/10/1
f 25/8/1 35/11/1 204/12/1 205/13/1 206/14/1 202/15/1 203/16/1 16/9/1
f 35/11/1 44/17/1 190/18/1 191/19/1 192/20/1 193/21/1 204/12/1
f 44/17/1 54/22/1 189/23/1 188/24/1 190/18/1
f 54/22/1 64/25/1 15/26/1 186/27/1 185/28/1 187/29/1 189/23/1
f 64/25/1 74/30/1 171/31/1 168/32/1 169/33/1 15/26/1
f 74/30/1 83/34/1 173/35/1 170/36/1 171/31/1
f 83/34/1 93/37/1 14/38/1 154/39/1 153/40/1 172/41/1 173/35/1
f 93/37/1 103/42/1 151/43/1 152/44/1 14/38/1
f 103/42/1 155/45/1 150/46/1 151/43/1
f 6/47/1 252/48/1 251/49/1 253/50/1 17/51/1 245/52/1 246/53/1
f 5/54/1 244/55/1 243/56/1 245/52/1 17/51/1 18/57/1 239/58/1 240/59/1 241/60/1 4/61/1
f 4/61/1 241/60/1 242/62/1 260/63/1
f 3/64/1 23/65/1 24/66/1 255/67/1 231/68/1 256/69/1
f 7/70/1 8/71/1 226/72/1 224/73/1 223/74/1 254/75/1 249/76/1 248/77/1
f 17/51/1 27/78/1 28/79/1 18/57/1
f 18/57/1 28/79/1 29/80/1 19/81/1
f 19/81/1 29/80/1 30/82/1 20/83/1
f 20/83/1 30/82/1 31/84/1 21/85/1
f 21/85/1 31/84/1 216/86/1 217/87/1
f 22/88/1 32/89/1 33/90/1 23/65/1
f 23/65/1 33/90/1 34/91/1 24/66/1
f 24/66/1 34/91/1 35/11/1 25/8/1 209/92/1 208/93/1 210/94/1
f 8/71/1 220/95/1 219/96/1 26/97/1 227/98/1 225/99/1 226/72/1
f 26/97/1 219/96/1 194/100/1 195/101/1 36/102/1 27/78/1
f 27/78/1 36/102/1 37/103/1 28/79/1
f 28/79/1 37/103/1 38/104/1 29/80/1
f 29/80/1 38/104/1 39/105/1 30/82/1
f 30/82/1 39/105/1 40/106/1 31/84/1
f 31/84/1 40/106/1 41/107/1 32/89/1 213/108/1 212/109/1 216/86/1
f 32/89/1 41/107/1 42/110/1 33/90/1
f 33/90/1 42/110/1 43/111/1 34/91/1
f 34/91/1 43/111/1 44/17/1 35/11/1
f 36/102/1 46/112/1 47/113/1 37/103/1
f 37/103/1 47/113/1 48/114/1 38/104/1
f 38/104/1 48/114/1 49/115/1 39/105/1
f 39/105/1 49/115/1 50/116/1 40/106/1
f 40/106/1 50/116/1 51/117/1 41/107/1
f 41/107/1 51/117/1 52/118/1 42/110/1
f 42/110/1 52/118/1 53/119/1 43/111/1
f 43/111/1 53/119/1 54/22/1 44/17/1
f 9/120/1 198/121/1 199/122/1 200/123/1 10/124/1 55/125/1 45/126/1
f 45/126/1 55/125/1 56/127/1 46/112/1
f 46/112/1 56/127/1 57/128/1 47/113/1
f 47/113/1 57/128/1 58/129/1 48/114/1
f 48/114/1 58/129/1 59/130/1 49/115/1
f 49/115/1 59/130/1 60/131/1 50/116/1
f 50/116/1 60/131/1 61/132/1 51/117/1
f 51/117/1 61/132/1 62/133/1 52/118/1
f 52/118/1 62/133/1 63/134/1 53/119/1
f 53/119/1 63/134/1 64/25/1 54/22/1
f 10/124/1 182/135/1 183/136/1 65/137/1 55/125/1
f 55/125/1 65/137/1 66/138/1 56/127/1
f 56/127/1 66/138/1 67/139/1 57/128/1
f 57/128/1 67/139/1 68/140/1 58/129/1
f 58/129/1 68/140/1 69/141/1 59/130/1
f 59/130/1 69/141/1 70/142/1 60/131/1
f 60/131/1 70/142/1 71/143/1 61/132/1
f 61/132/1 71/143/1 72/144/1 62/133/1
f 62/133/1 72/144/1 73/145/1 63/134/1
f 63/134/1 73/145/1 74/30/1 64/25/1
f 65/137/1 178/146/1 174/147/1 175/148/1 176/149/1 75/150/1 66/138/1
f 66/138/1 75/150/1 76/151/1 67/139/1
f 67/139/1 76/151/1 77/152/1 68/140/1
f 68/140/1 77/152/1 78/153/1 69/141/1
f 69/141/1 78/153/1 79/154/1 70/142/1
f 70/142/1 79/154/1 80/155/1 71/143/1
f 71/143/1 80/155/1 81/156/1 72/144/1
f 72/144/1 81/156/1 82/157/1 73/145/1
f 73/145/1 82/157/1 83/34/1 74/30/1
f 75/150/1 164/158/1 157/159/1 158/160/1 85/161/1 86/162/1 76/151/1
f 76/151/1 86/162/1 87/163/1 77/152/1
f 77/152/1 87/163/1 88/164/1 78/153/1
f 78/153/1 88/164/1 89/165/1 79/154/1
f 79/154/1 89/165/1 90/166/1 80/155/1
f 80/155/1 90/166/1 91/167/1 81/156/1
f 81/156/1 91/167/1 92/168/1 82/157/1
f 82/157/1 92/168/1 93/37/1 83/34/1
f 84/169/1 94/170/1 95/171/1 85/161/1
f 85/161/1 95/171/1 96/172/1 86/162/1
f 86/162/1 96/172/1 97/173/1 87/163/1
f 87/163/1 97/173/1 98/174/1 88/164/1
f 88/164/1 98/174/1 99/175/1 89/165/1
f 89/165/1 99/175/1 100/176/1 90/166/1
f 90/166/1 100/176/1 101/177/1 91/167/1
f 91/167/1 101/177/1 102/178/1 92/168/1
f 92/168/1 102/178/1 103/42/1 93/37/1
f 94/170/1 104/179/1 105/180/1 95/171/1
f 95/171/1 105/180/1 106/181/1 96/172/1
f 96/172/1 106/181/1 107/182/1 97/173/1
f 97/173/1 107/182/1 108/183/1 98/174/1
f 98/174/1 108/183/1 109/184/1 99/175/1
f 99/175/1 109/184/1 110/185/1 100/176/1
f 100/176/1 110/185/1 126/186/1 125/187/1 124/188/1 111/189/1 101/177/1
f 101/177/1 111/189/1 112/190/1 102/178/1
f 102/178/1 112/190/1 113/1/1 148/191/1 149/192/1 155/45/1 103/42/1
f 104/179/1 11/193/1 145/194/1 144/195/1 142/196/1 105/180/1
f 105/180/1 142/196/1 143/197/1 141/198/1 140/199/1 139/200/1 138/201/1 106/181/1
f 106/181/1 138/201/1 136/202/1 137/203/1 12/204/1 107/182/1
f 107/182/1 12/204/1 134/205/1 135/206/1 108/183/1
f 108/183/1 135/206/1 133/207/1 132/208/1 131/209/1 130/210/1 129/211/1 109/184/1
f 109/184/1 129/211/1 128/212/1 127/213/1 110/185/1
f 110/185/1 127/213/1 126/186/1
f 111/189/1 13/214/1 122/215/1 121/216/1 112/190/1
f 112/190/1 121/216/1 120/217/1 119/2/1 113/1/1
f 258/218/1 215/219/1 214/220/1 22/88/1
f 217/87/1 218/221/1 232/222/1 21/85/1
f 166/223/1 167/224/1 146/225/1 147/226/1 11/193/1 104/179/1
f 247/227/1 244/55/1 5/54/1
f 114/6/1 115/228/1 148/191/1 113/1/1
f 176/149/1 165/229/1 164/158/1 75/150/1
f 158/160/1 159/230/1 84/169/1 85/161/1
f 183/136/1 179/231/1 180/232/1 184/233/1 181/234/1 177/235/1 178/146/1 65/137/1
f 124/188/1 123/236/1 13/214/1 111/189/1
f 257/237/1 258/218/1 22/88/1 23/65/1 3/64/1
f 214/220/1 213/108/1 32/89/1 22/88/1
f 232/222/1 233/238/1 234/239/1 235/240/1 259/241/1 20/83/1 21/85/1
f 259/241/1 236/242/1 237/243/1 19/81/1 20/83/1
f 162/244/1 160/245/1 94/170/1 84/169/1
f 253/50/1 250/246/1 26/97/1 27/78/1 17/51/1
f 195/101/1 196/247/1 45/126/1 46/112/1 36/102/1
f 250/246/1 222/248/1 221/249/1 227/98/1 26/97/1
f 237/243/1 238/250/1 239/58/1 18/57/1 19/81/1
f 160/245/1 161/251/1 166/223/1 104/179/1 94/170/1
f 159/230/1 156/252/1 163/253/1 162/244/1 84/169/1
f 211/254/1 209/92/1 25/8/1 2/7/1
f 210/94/1 207/255/1 228/256/1 229/257/1 230/258/1 255/67/1 24/66/1
f 263/259/1 261/260/1 262/261/1 7/70/1 248/77/1 252/48/1 6/47/1
f 196/247/1 197/262/1 201/263/1 9/120/1 45/126/1
